#tb 0: 1/8
#media_type 0: video
#codec_id 0: rawvideo
#dimensions 0: 160x120
#sar 0: 1/1
0,          0,          0,        1,    28800, 0xcb69686a
0,          1,          1,        1,    28800, 0xb9c13766
0,          2,          2,        1,    28800, 0xeb439680
0,          3,          3,        1,    28800, 0x16e9d985
0,          4,          4,        1,    28800, 0x2f985496
0,          5,          5,        1,    28800, 0xf71f6f72
0,          6,          6,        1,    28800, 0x0d447518
0,          7,          7,        1,    28800, 0xf990aba6
